# Blender v2.90.0 OBJ File: ''
# www.blender.org
mtllib apple.mtl
o Plane.001
v 0.111651 1.284259 -0.017682
v 0.966686 2.115248 -0.844689
v -0.037351 1.545865 -0.373224
v 0.433968 1.597190 0.165641
v 0.706275 1.845487 0.034324
v 0.108725 1.789396 -0.639838
v 0.914380 2.039035 -0.288046
v 0.428231 1.995817 -0.834096
v 0.229766 1.513731 -0.129342
v 0.437071 1.761078 -0.328818
v 0.698036 1.968832 -0.582262
v -0.081295 1.619513 -0.340840
v 0.067707 1.357906 0.014702
v 0.870435 2.112682 -0.255662
v 0.922742 2.188896 -0.812305
v 0.064781 1.863044 -0.607454
v 0.185822 1.587379 -0.096958
v 0.390024 1.670837 0.198025
v 0.662331 1.919134 0.066708
v 0.384287 2.069464 -0.801712
v 0.393127 1.834726 -0.296434
v 0.654092 2.042480 -0.549878
v 0.111651 1.284259 -0.017682
v 0.966686 2.115248 -0.844689
v -0.037351 1.545865 -0.373224
v 0.433968 1.597190 0.165641
v 0.706275 1.845487 0.034324
v 0.108725 1.789396 -0.639838
v 0.914380 2.039035 -0.288046
v 0.428231 1.995817 -0.834096
v -0.074362 1.487207 -0.127191
v 0.075075 1.484650 -0.132839
v 0.152579 1.484650 -0.001402
v -0.000000 0.149939 -0.000000
v 0.077504 1.484650 0.131436
v -0.126745 1.484650 0.045215
v -0.507939 0.286604 -0.861394
v 0.492019 0.286604 -0.870584
v 0.999958 0.286604 -0.009191
v 0.507939 0.286604 0.861393
v -0.492019 0.286604 0.870584
v -0.999958 0.286604 0.009191
v -0.622810 0.972396 -1.056199
v 0.603290 0.972396 -1.067468
v 1.226099 0.972396 -0.011269
v 0.622809 0.972396 1.056199
v -0.603290 0.972396 1.067468
v -1.226099 0.972396 0.011270
v -5.669542 0.429303 1.594899
v -5.758082 2.421692 1.444748
v -5.669542 0.429303 1.594899
v -5.758082 2.421692 1.444748
v 0.505634 1.444107 -0.894674
v -0.521994 1.444107 -0.885229
v 1.027628 1.444107 -0.009445
v 0.521994 1.444107 0.885229
v -0.505634 1.444107 0.894674
v -1.027628 1.444107 0.009445
v 0.339484 1.661488 -0.600687
v -0.350468 1.661488 -0.594346
v 0.689952 1.661488 -0.006342
v 0.350468 1.661488 0.594346
v -0.339484 1.661488 0.600687
v -0.689952 1.661488 0.006342
v -0.152982 1.700816 -0.085762
v -0.001207 1.685569 -0.082006
v 0.073979 1.702927 0.049631
v -0.002611 1.735533 0.177511
v -0.154386 1.750780 0.173754
v -0.229572 1.733422 0.042118
v -0.147283 1.919217 -0.159475
v 0.040241 1.900379 -0.154834
v 0.133135 1.921825 0.007807
v 0.038506 1.962111 0.165806
v -0.149017 1.980949 0.161165
v -0.241912 1.959502 -0.001476
v -0.269919 -0.031275 -0.457746
v 0.261460 -0.031337 -0.462630
v 0.531379 -0.031275 -0.004884
v 0.269919 -0.031275 0.457746
v -0.261460 -0.031333 0.462630
v -0.531379 -0.031275 0.004884
v -0.024461 1.484650 0.160123
vt 0.419722 0.225875
vt 0.419722 0.302547
vt 0.344416 0.225875
vt 0.419722 0.022318
vt 0.419722 0.077069
vt 0.344416 0.077069
vt 0.419722 0.147821
vt 0.325474 0.147821
vt 0.511735 0.147821
vt 0.494103 0.225875
vt 0.494103 0.077069
vt 0.166910 0.311065
vt 0.268465 0.311065
vt 0.166910 0.407589
vt 0.166910 0.044470
vt 0.268465 0.123177
vt 0.166910 0.123177
vt 0.295398 0.211392
vt 0.166910 0.211392
vt 0.040496 0.211392
vt 0.062435 0.311065
vt 0.062435 0.123177
vt 0.318996 0.211392
vt 0.287666 0.326027
vt 0.166910 0.432508
vt 0.045978 0.328653
vt 0.018404 0.211392
vt 0.166910 0.019684
vt 0.285041 0.111756
vt 0.047729 0.110880
vt -0.000000 0.003287
vt -0.000000 0.003287
vt -0.000000 0.003287
vt -0.000000 0.003287
vt -0.000000 0.003287
vt -0.000000 0.003287
vt -0.000000 0.003287
vt -0.000000 0.003287
vt -0.000000 0.003287
vt -0.000000 0.003287
vt -0.000000 0.003287
vt -0.000000 0.003287
vt -0.000000 0.003287
vt -0.000000 0.003287
vt -0.000000 0.003287
vt -0.000000 0.003287
vt 0.537366 0.508208
vt 0.555415 0.553907
vt 0.471052 0.608676
vt 0.438720 0.565652
vt 0.390186 0.705134
vt 0.334629 0.660933
vt 0.321614 0.916763
vt 0.177224 0.882341
vt 0.977228 0.491617
vt 0.928693 0.606812
vt 0.753909 0.533122
vt 0.762553 0.472326
vt 0.647214 0.528782
vt 0.642226 0.479270
vt 0.603565 0.290261
vt 0.631247 0.400671
vt 0.508007 0.430506
vt 0.454687 0.297223
vt 0.728790 0.288865
vt 0.755544 0.383009
vt 0.831025 0.230862
vt 0.928851 0.327509
vt 0.198293 0.443157
vt 0.266904 0.568728
vt 0.030478 0.693896
vt 0.030478 0.489384
vt 0.339336 0.394430
vt 0.394092 0.491428
vt 0.571602 0.593223
vt 0.502794 0.644014
vt 0.447148 0.732522
vt 0.433830 0.898543
vt 0.851949 0.660278
vt 0.738490 0.581187
vt 0.649407 0.571483
vt 0.619465 0.703012
vt 0.595331 0.730997
vt 0.583871 0.768799
vt 0.592509 0.810059
vt 0.715386 0.717433
vt 0.698796 0.695229
vt 0.661983 0.690279
vt 0.770541 0.736105
vt 0.827463 0.725824
vt 0.851498 0.806892
vt 0.801602 0.808795
vt 0.893815 0.790181
vt 0.930825 0.851115
vt 0.873324 0.877359
vt 0.872320 0.700218
vt 0.679217 0.741413
vt 0.724885 0.732311
vt 0.744141 0.809863
vt 0.685721 0.821482
vt 0.637919 0.759359
vt 0.640549 0.842573
vt 0.747008 0.892737
vt 0.755993 0.946971
vt 0.713517 0.981869
vt 0.663050 0.960069
vt 0.656697 0.905463
vt 0.700013 0.886023
vt 0.809153 0.889395
vt 0.929927 0.759716
vt 0.978818 0.814771
vt 0.729679 0.171322
vt 0.628332 0.111783
vt 0.730567 0.053780
vt 0.831914 0.113322
vt 0.627444 0.229323
vt 0.898797 0.677711
vn 0.3599 -0.8995 -0.2477
vn 0.3079 -0.9294 -0.2034
vn 0.4784 -0.8655 -0.1484
vn 0.6384 -0.5767 -0.5098
vn 0.5830 -0.6772 -0.4489
vn 0.6482 -0.7096 -0.2762
vn 0.4615 -0.8200 -0.3386
vn 0.5589 -0.8019 -0.2110
vn 0.3492 -0.8178 -0.4575
vn 0.2706 -0.8855 -0.3777
vn 0.4289 -0.7203 -0.5452
vn -0.3599 0.8995 0.2477
vn -0.4784 0.8655 0.1484
vn -0.3079 0.9294 0.2034
vn -0.6384 0.5767 0.5098
vn -0.6482 0.7096 0.2762
vn -0.5830 0.6772 0.4489
vn -0.5589 0.8019 0.2110
vn -0.4615 0.8200 0.3386
vn -0.3492 0.8178 0.4575
vn -0.2706 0.8855 0.3777
vn -0.4289 0.7203 0.5452
vn 0.6528 0.0574 0.7554
vn 0.8620 0.3554 0.3615
vn 0.8467 0.3175 0.4269
vn 0.6458 0.0503 0.7619
vn 0.5731 0.5914 -0.5673
vn -0.3005 0.2279 -0.9261
vn -0.3649 0.1836 -0.9128
vn 0.5651 0.5905 -0.5761
vn -0.6696 -0.0746 -0.7390
vn -0.6734 -0.0786 -0.7351
vn -0.5877 -0.5928 0.5506
vn 0.1846 -0.3012 0.9355
vn 0.2623 -0.2530 0.9312
vn -0.5883 -0.5928 0.5500
vn -0.8728 -0.3942 -0.2879
vn -0.8598 -0.3493 -0.3724
vn 0.0000 0.0000 1.0000
vn -0.5076 0.0360 -0.8608
vn -0.4065 0.5997 -0.6893
vn 0.3937 0.5997 -0.6967
vn 0.4917 0.0360 -0.8700
vn 0.8002 0.5997 -0.0074
vn 0.9993 0.0360 -0.0092
vn 0.4065 0.5997 0.6893
vn 0.5076 0.0360 0.8608
vn -0.3937 0.5997 0.6967
vn -0.4917 0.0360 0.8700
vn -0.8002 0.5997 0.0074
vn -0.9993 0.0360 0.0092
vn -0.2709 -0.9626 0.0025
vn -0.8304 -0.5571 0.0076
vn -0.4218 -0.5571 -0.7153
vn -0.1376 -0.9626 -0.2333
vn -0.1333 -0.9626 0.2358
vn -0.4086 -0.5571 0.7230
vn 0.1376 -0.9626 0.2333
vn 0.4218 -0.5571 0.7153
vn 0.2709 -0.9626 -0.0025
vn 0.8304 -0.5571 -0.0076
vn 0.1333 -0.9626 -0.2358
vn 0.4086 -0.5571 -0.7230
vn -0.1328 0.9645 -0.2284
vn 0.1289 0.9653 -0.2272
vn 0.2602 0.9655 -0.0024
vn 0.1298 0.9662 0.2225
vn -0.1277 0.9656 0.2267
vn -0.2643 0.9644 0.0019
vn -0.1037 0.9490 -0.2978
vn 0.1228 0.9788 -0.1639
vn 0.2080 0.9775 -0.0355
vn 0.2527 0.9318 0.2605
vn -0.0853 0.9035 0.4199
vn -0.5150 0.8518 0.0959
vn -0.9754 -0.2036 0.0850
vn -0.6035 -0.2161 -0.7675
vn -0.5074 -0.0946 0.8565
vn -0.5118 0.0588 0.8571
vn -0.9986 -0.0536 0.0049
vn 0.4722 0.0157 -0.8814
vn 0.9953 0.0480 0.0836
vn 0.4393 -0.0115 0.8983
vn 0.1028 0.9769 -0.1875
vn 0.9665 -0.2510 0.0535
vn 0.4707 -0.0399 0.8814
vn -0.5027 -0.2646 -0.8229
vn 0.4798 -0.3633 -0.7986
vn -0.0000 -1.0000 0.0000
usemtl apple
s 1
f 11/1/1 2/2/2 7/3/3
f 1/4/4 9/5/5 4/6/6
f 9/5/5 10/7/7 5/8/8 4/6/6
f 10/7/7 11/1/1 7/3/3 5/8/8
f 6/9/9 8/10/10 11/1/1 10/7/7
f 3/11/11 6/9/9 10/7/7 9/5/5
f 1/4/4 3/11/11 9/5/5
f 8/10/10 2/2/2 11/1/1
f 22/12/12 14/13/13 15/14/14
f 13/15/15 18/16/16 17/17/17
f 17/17/17 18/16/16 19/18/18 21/19/19
f 21/19/19 19/18/18 14/13/13 22/12/12
f 16/20/20 21/19/19 22/12/12 20/21/21
f 12/22/22 17/17/17 21/19/19 16/20/20
f 13/15/15 17/17/17 12/22/22
f 20/21/21 22/12/12 15/14/14
f 5/23/23 7/24/24 14/13/25 19/18/26
f 2/25/27 8/26/28 20/21/29 15/14/30
f 8/26/28 6/27/31 16/20/32 20/21/29
f 7/24/24 2/25/27 15/14/30 14/13/25
f 1/28/33 4/29/34 18/16/35 13/15/36
f 4/29/34 5/23/23 19/18/26 18/16/35
f 6/27/31 3/30/37 12/22/38 16/20/32
f 3/30/37 1/28/33 13/15/36 12/22/38
f 4/31/39 1/32/39 23/33/39 26/34/39
f 5/35/39 4/31/39 26/34/39 27/36/39
f 3/37/39 6/38/39 28/39/39 25/40/39
f 1/32/39 3/37/39 25/40/39 23/33/39
f 7/41/39 5/35/39 27/36/39 29/42/39
f 8/43/39 2/44/39 24/45/39 30/46/39
f 6/38/39 8/43/39 30/46/39 28/39/39
f 2/44/39 7/41/39 29/42/39 24/45/39
f 43/47/40 54/48/41 53/49/42 44/50/43
f 44/50/43 53/49/42 55/51/44 45/52/45
f 45/52/45 55/51/44 56/53/46 46/54/47
f 46/55/47 56/56/46 57/57/48 47/58/49
f 47/58/49 57/57/48 58/59/50 48/60/51
f 48/60/51 58/59/50 54/48/41 43/47/40
f 82/61/52 42/62/53 37/63/54 77/64/55
f 81/65/56 41/66/57 42/62/53 82/61/52
f 80/67/58 40/68/59 41/66/57 81/65/56
f 79/69/60 39/70/61 40/71/59 80/72/58
f 78/73/62 38/74/63 39/70/61 79/69/60
f 77/64/55 37/63/54 38/74/63 78/73/62
f 42/62/53 48/60/51 43/47/40 37/63/54
f 41/66/57 47/58/49 48/60/51 42/62/53
f 40/68/59 46/55/47 47/58/49 41/66/57
f 39/70/61 45/52/45 46/54/47 40/71/59
f 38/74/63 44/50/43 45/52/45 39/70/61
f 37/63/54 43/47/40 44/50/43 38/74/63
f 60/75/64 59/76/65 53/49/42 54/48/41
f 59/76/65 61/77/66 55/51/44 53/49/42
f 61/77/66 62/78/67 56/53/46 55/51/44
f 62/79/67 63/80/68 57/57/48 56/56/46
f 63/80/68 64/81/69 58/59/50 57/57/48
f 64/81/69 60/75/64 54/48/41 58/59/50
f 31/82/70 32/83/71 59/76/65 60/75/64
f 32/83/71 33/84/72 61/77/66 59/76/65
f 33/84/72 35/85/73 62/78/67 61/77/66
f 35/86/73 83/87/74 63/80/68 62/79/67
f 63/80/68 83/87/74 36/88/75 64/81/69
f 36/88/75 31/82/70 60/75/64 64/81/69
f 31/89/70 36/90/75 70/91/76 65/92/77
f 70/91/76 69/93/78 75/94/79 76/95/80
f 36/90/75 83/96/74 69/93/78 70/91/76
f 33/97/72 32/98/71 66/99/81 67/100/82
f 35/101/73 33/97/72 67/100/82 68/102/83
f 32/98/71 31/89/70 65/92/77 66/99/81
f 72/103/84 71/104/84 76/105/84 75/106/84 74/107/84 73/108/84
f 68/102/83 67/100/82 73/108/85 74/107/86
f 66/99/81 65/92/77 71/109/87 72/103/88
f 65/92/77 70/91/76 76/95/80 71/109/87
f 69/93/78 68/110/83 74/111/86 75/94/79
f 67/100/82 66/99/81 72/103/88 73/108/85
f 34/112/89 77/113/55 78/114/62
f 34/112/89 78/114/62 79/115/60
f 34/112/89 79/115/60 80/67/58
f 34/112/89 80/67/58 81/65/56
f 34/112/89 81/65/56 82/116/52
f 34/112/89 82/116/52 77/113/55
f 69/93/78 83/96/74 35/117/73 68/110/83
